<?xml version="1.0" encoding="UTF-8" standalone="no"?>
<!DOCTYPE svg PUBLIC "-//W3C//DTD SVG 1.1//EN"
 "http://www.w3.org/Graphics/SVG/1.1/DTD/svg11.dtd">
<!-- Generated by graphviz version 12.2.1 (20241206.2353)
 -->
<!-- Pages: 1 -->
<svg width="2185pt" height="980pt"
 viewBox="0.00 0.00 2184.85 980.00" xmlns="http://www.w3.org/2000/svg" xmlns:xlink="http://www.w3.org/1999/xlink">
<g id="graph0" class="graph" transform="scale(1 1) rotate(0) translate(4 976)">
<polygon fill="white" stroke="none" points="-4,4 -4,-976 2180.85,-976 2180.85,4 -4,4"/>
<!-- [root] azurerm_network_interface.autoazvm&#45;dev&#45;ni -->
<g id="node1" class="node">
<title>[root] azurerm_network_interface.autoazvm&#45;dev&#45;ni</title>
<polygon fill="none" stroke="black" points="1667.04,-684 1405.04,-684 1405.04,-648 1667.04,-648 1667.04,-684"/>
<text text-anchor="middle" x="1536.04" y="-660.95" font-family="Times,serif" font-size="14.00">azurerm_network_interface.autoazvm&#45;dev&#45;ni</text>
</g>
<!-- [root] azurerm_network_interface.autoazvm&#45;dev&#45;ni (expand) -->
<g id="node2" class="node">
<title>[root] azurerm_network_interface.autoazvm&#45;dev&#45;ni (expand)</title>
<polygon fill="none" stroke="black" points="1621.04,-612 1359.04,-612 1359.04,-576 1621.04,-576 1621.04,-612"/>
<text text-anchor="middle" x="1490.04" y="-588.95" font-family="Times,serif" font-size="14.00">azurerm_network_interface.autoazvm&#45;dev&#45;ni</text>
</g>
<!-- [root] azurerm_network_interface.autoazvm&#45;dev&#45;ni&#45;&gt;[root] azurerm_network_interface.autoazvm&#45;dev&#45;ni (expand) -->
<g id="edge5" class="edge">
<title>[root] azurerm_network_interface.autoazvm&#45;dev&#45;ni&#45;&gt;[root] azurerm_network_interface.autoazvm&#45;dev&#45;ni (expand)</title>
<path fill="none" stroke="black" d="M1524.66,-647.7C1519.48,-639.81 1513.24,-630.3 1507.48,-621.55"/>
<polygon fill="black" stroke="black" points="1510.52,-619.8 1502.11,-613.37 1504.67,-623.65 1510.52,-619.8"/>
</g>
<!-- [root] azurerm_public_ip.autoazvm&#45;dev&#45;pip -->
<g id="node5" class="node">
<title>[root] azurerm_public_ip.autoazvm&#45;dev&#45;pip</title>
<polygon fill="none" stroke="black" points="1390.79,-540 1169.29,-540 1169.29,-504 1390.79,-504 1390.79,-540"/>
<text text-anchor="middle" x="1280.04" y="-516.95" font-family="Times,serif" font-size="14.00">azurerm_public_ip.autoazvm&#45;dev&#45;pip</text>
</g>
<!-- [root] azurerm_network_interface.autoazvm&#45;dev&#45;ni (expand)&#45;&gt;[root] azurerm_public_ip.autoazvm&#45;dev&#45;pip -->
<g id="edge1" class="edge">
<title>[root] azurerm_network_interface.autoazvm&#45;dev&#45;ni (expand)&#45;&gt;[root] azurerm_public_ip.autoazvm&#45;dev&#45;pip</title>
<path fill="none" stroke="black" d="M1437.59,-575.52C1408.91,-565.96 1373.2,-554.05 1343.02,-544"/>
<polygon fill="black" stroke="black" points="1344.21,-540.7 1333.62,-540.86 1342,-547.34 1344.21,-540.7"/>
</g>
<!-- [root] azurerm_subnet.autoazvm&#45;dev&#45;subnet -->
<g id="node9" class="node">
<title>[root] azurerm_subnet.autoazvm&#45;dev&#45;subnet</title>
<polygon fill="none" stroke="black" points="1150.91,-540 927.16,-540 927.16,-504 1150.91,-504 1150.91,-540"/>
<text text-anchor="middle" x="1039.04" y="-516.95" font-family="Times,serif" font-size="14.00">azurerm_subnet.autoazvm&#45;dev&#45;subnet</text>
</g>
<!-- [root] azurerm_network_interface.autoazvm&#45;dev&#45;ni (expand)&#45;&gt;[root] azurerm_subnet.autoazvm&#45;dev&#45;subnet -->
<g id="edge2" class="edge">
<title>[root] azurerm_network_interface.autoazvm&#45;dev&#45;ni (expand)&#45;&gt;[root] azurerm_subnet.autoazvm&#45;dev&#45;subnet</title>
<path fill="none" stroke="black" d="M1377.39,-575.52C1311.9,-565.35 1229.29,-552.53 1162.1,-542.1"/>
<polygon fill="black" stroke="black" points="1162.94,-538.69 1152.52,-540.61 1161.86,-545.61 1162.94,-538.69"/>
</g>
<!-- [root] var.ip_configuration_name -->
<g id="node21" class="node">
<title>[root] var.ip_configuration_name</title>
<polygon fill="none" stroke="black" points="1565.54,-540 1408.54,-540 1408.54,-504 1571.54,-504 1571.54,-534 1565.54,-540"/>
<polyline fill="none" stroke="black" points="1565.54,-540 1565.54,-534"/>
<polyline fill="none" stroke="black" points="1571.54,-534 1565.54,-534"/>
<text text-anchor="middle" x="1490.04" y="-516.95" font-family="Times,serif" font-size="14.00">var.ip_configuration_name</text>
</g>
<!-- [root] azurerm_network_interface.autoazvm&#45;dev&#45;ni (expand)&#45;&gt;[root] var.ip_configuration_name -->
<g id="edge3" class="edge">
<title>[root] azurerm_network_interface.autoazvm&#45;dev&#45;ni (expand)&#45;&gt;[root] var.ip_configuration_name</title>
<path fill="none" stroke="black" d="M1490.04,-575.7C1490.04,-568.41 1490.04,-559.73 1490.04,-551.54"/>
<polygon fill="black" stroke="black" points="1493.54,-551.62 1490.04,-541.62 1486.54,-551.62 1493.54,-551.62"/>
</g>
<!-- [root] var.network_interface_name -->
<g id="node23" class="node">
<title>[root] var.network_interface_name</title>
<polygon fill="none" stroke="black" points="1754.66,-540 1589.41,-540 1589.41,-504 1760.66,-504 1760.66,-534 1754.66,-540"/>
<polyline fill="none" stroke="black" points="1754.66,-540 1754.66,-534"/>
<polyline fill="none" stroke="black" points="1760.66,-534 1754.66,-534"/>
<text text-anchor="middle" x="1675.04" y="-516.95" font-family="Times,serif" font-size="14.00">var.network_interface_name</text>
</g>
<!-- [root] azurerm_network_interface.autoazvm&#45;dev&#45;ni (expand)&#45;&gt;[root] var.network_interface_name -->
<g id="edge4" class="edge">
<title>[root] azurerm_network_interface.autoazvm&#45;dev&#45;ni (expand)&#45;&gt;[root] var.network_interface_name</title>
<path fill="none" stroke="black" d="M1536.24,-575.52C1561.17,-566.08 1592.14,-554.37 1618.49,-544.39"/>
<polygon fill="black" stroke="black" points="1619.57,-547.73 1627.68,-540.92 1617.09,-541.18 1619.57,-547.73"/>
</g>
<!-- [root] azurerm_network_security_group.autoazvm&#45;dev&#45;nsg -->
<g id="node3" class="node">
<title>[root] azurerm_network_security_group.autoazvm&#45;dev&#45;nsg</title>
<polygon fill="none" stroke="black" points="454.04,-684 150.04,-684 150.04,-648 454.04,-648 454.04,-684"/>
<text text-anchor="middle" x="302.04" y="-660.95" font-family="Times,serif" font-size="14.00">azurerm_network_security_group.autoazvm&#45;dev&#45;nsg</text>
</g>
<!-- [root] azurerm_network_security_group.autoazvm&#45;dev&#45;nsg (expand) -->
<g id="node4" class="node">
<title>[root] azurerm_network_security_group.autoazvm&#45;dev&#45;nsg (expand)</title>
<polygon fill="none" stroke="black" points="454.04,-612 150.04,-612 150.04,-576 454.04,-576 454.04,-612"/>
<text text-anchor="middle" x="302.04" y="-588.95" font-family="Times,serif" font-size="14.00">azurerm_network_security_group.autoazvm&#45;dev&#45;nsg</text>
</g>
<!-- [root] azurerm_network_security_group.autoazvm&#45;dev&#45;nsg&#45;&gt;[root] azurerm_network_security_group.autoazvm&#45;dev&#45;nsg (expand) -->
<g id="edge8" class="edge">
<title>[root] azurerm_network_security_group.autoazvm&#45;dev&#45;nsg&#45;&gt;[root] azurerm_network_security_group.autoazvm&#45;dev&#45;nsg (expand)</title>
<path fill="none" stroke="black" d="M302.04,-647.7C302.04,-640.41 302.04,-631.73 302.04,-623.54"/>
<polygon fill="black" stroke="black" points="305.54,-623.62 302.04,-613.62 298.54,-623.62 305.54,-623.62"/>
</g>
<!-- [root] azurerm_resource_group.autoazvm&#45;dev&#45;rg -->
<g id="node7" class="node">
<title>[root] azurerm_resource_group.autoazvm&#45;dev&#45;rg</title>
<polygon fill="none" stroke="black" points="1606.29,-252 1357.79,-252 1357.79,-216 1606.29,-216 1606.29,-252"/>
<text text-anchor="middle" x="1482.04" y="-228.95" font-family="Times,serif" font-size="14.00">azurerm_resource_group.autoazvm&#45;dev&#45;rg</text>
</g>
<!-- [root] azurerm_network_security_group.autoazvm&#45;dev&#45;nsg (expand)&#45;&gt;[root] azurerm_resource_group.autoazvm&#45;dev&#45;rg -->
<g id="edge6" class="edge">
<title>[root] azurerm_network_security_group.autoazvm&#45;dev&#45;nsg (expand)&#45;&gt;[root] azurerm_resource_group.autoazvm&#45;dev&#45;rg</title>
<path fill="none" stroke="black" d="M396.25,-575.51C504.1,-552.74 666.04,-508.91 666.04,-451 666.04,-451 666.04,-451 666.04,-377 666.04,-308.78 1114.42,-263.67 1346.44,-244.9"/>
<polygon fill="black" stroke="black" points="1346.46,-248.41 1356.15,-244.12 1345.9,-241.43 1346.46,-248.41"/>
</g>
<!-- [root] var.network_security_group_name -->
<g id="node24" class="node">
<title>[root] var.network_security_group_name</title>
<polygon fill="none" stroke="black" points="398.54,-540 199.54,-540 199.54,-504 404.54,-504 404.54,-534 398.54,-540"/>
<polyline fill="none" stroke="black" points="398.54,-540 398.54,-534"/>
<polyline fill="none" stroke="black" points="404.54,-534 398.54,-534"/>
<text text-anchor="middle" x="302.04" y="-516.95" font-family="Times,serif" font-size="14.00">var.network_security_group_name</text>
</g>
<!-- [root] azurerm_network_security_group.autoazvm&#45;dev&#45;nsg (expand)&#45;&gt;[root] var.network_security_group_name -->
<g id="edge7" class="edge">
<title>[root] azurerm_network_security_group.autoazvm&#45;dev&#45;nsg (expand)&#45;&gt;[root] var.network_security_group_name</title>
<path fill="none" stroke="black" d="M302.04,-575.7C302.04,-568.41 302.04,-559.73 302.04,-551.54"/>
<polygon fill="black" stroke="black" points="305.54,-551.62 302.04,-541.62 298.54,-551.62 305.54,-551.62"/>
</g>
<!-- [root] azurerm_public_ip.autoazvm&#45;dev&#45;pip (expand) -->
<g id="node6" class="node">
<title>[root] azurerm_public_ip.autoazvm&#45;dev&#45;pip (expand)</title>
<polygon fill="none" stroke="black" points="1454.79,-468 1233.29,-468 1233.29,-432 1454.79,-432 1454.79,-468"/>
<text text-anchor="middle" x="1344.04" y="-444.95" font-family="Times,serif" font-size="14.00">azurerm_public_ip.autoazvm&#45;dev&#45;pip</text>
</g>
<!-- [root] azurerm_public_ip.autoazvm&#45;dev&#45;pip&#45;&gt;[root] azurerm_public_ip.autoazvm&#45;dev&#45;pip (expand) -->
<g id="edge11" class="edge">
<title>[root] azurerm_public_ip.autoazvm&#45;dev&#45;pip&#45;&gt;[root] azurerm_public_ip.autoazvm&#45;dev&#45;pip (expand)</title>
<path fill="none" stroke="black" d="M1295.86,-503.7C1303.37,-495.47 1312.51,-485.48 1320.79,-476.42"/>
<polygon fill="black" stroke="black" points="1323.21,-478.96 1327.38,-469.22 1318.05,-474.24 1323.21,-478.96"/>
</g>
<!-- [root] azurerm_public_ip.autoazvm&#45;dev&#45;pip (expand)&#45;&gt;[root] azurerm_resource_group.autoazvm&#45;dev&#45;rg -->
<g id="edge9" class="edge">
<title>[root] azurerm_public_ip.autoazvm&#45;dev&#45;pip (expand)&#45;&gt;[root] azurerm_resource_group.autoazvm&#45;dev&#45;rg</title>
<path fill="none" stroke="black" d="M1345.39,-431.75C1348.78,-399.65 1360.28,-330.17 1398.04,-288 1408.59,-276.21 1422.36,-266.07 1435.7,-257.9"/>
<polygon fill="black" stroke="black" points="1437.1,-261.14 1443.97,-253.07 1433.57,-255.09 1437.1,-261.14"/>
</g>
<!-- [root] var.public_ip_name -->
<g id="node25" class="node">
<title>[root] var.public_ip_name</title>
<polygon fill="none" stroke="black" points="1490.04,-396 1372.04,-396 1372.04,-360 1496.04,-360 1496.04,-390 1490.04,-396"/>
<polyline fill="none" stroke="black" points="1490.04,-396 1490.04,-390"/>
<polyline fill="none" stroke="black" points="1496.04,-390 1490.04,-390"/>
<text text-anchor="middle" x="1434.04" y="-372.95" font-family="Times,serif" font-size="14.00">var.public_ip_name</text>
</g>
<!-- [root] azurerm_public_ip.autoazvm&#45;dev&#45;pip (expand)&#45;&gt;[root] var.public_ip_name -->
<g id="edge10" class="edge">
<title>[root] azurerm_public_ip.autoazvm&#45;dev&#45;pip (expand)&#45;&gt;[root] var.public_ip_name</title>
<path fill="none" stroke="black" d="M1366.28,-431.7C1377.32,-423.11 1390.83,-412.61 1402.87,-403.24"/>
<polygon fill="black" stroke="black" points="1404.79,-406.18 1410.54,-397.28 1400.5,-400.65 1404.79,-406.18"/>
</g>
<!-- [root] azurerm_resource_group.autoazvm&#45;dev&#45;rg (expand) -->
<g id="node8" class="node">
<title>[root] azurerm_resource_group.autoazvm&#45;dev&#45;rg (expand)</title>
<polygon fill="none" stroke="black" points="1606.29,-180 1357.79,-180 1357.79,-144 1606.29,-144 1606.29,-180"/>
<text text-anchor="middle" x="1482.04" y="-156.95" font-family="Times,serif" font-size="14.00">azurerm_resource_group.autoazvm&#45;dev&#45;rg</text>
</g>
<!-- [root] azurerm_resource_group.autoazvm&#45;dev&#45;rg&#45;&gt;[root] azurerm_resource_group.autoazvm&#45;dev&#45;rg (expand) -->
<g id="edge16" class="edge">
<title>[root] azurerm_resource_group.autoazvm&#45;dev&#45;rg&#45;&gt;[root] azurerm_resource_group.autoazvm&#45;dev&#45;rg (expand)</title>
<path fill="none" stroke="black" d="M1482.04,-215.7C1482.04,-208.41 1482.04,-199.73 1482.04,-191.54"/>
<polygon fill="black" stroke="black" points="1485.54,-191.62 1482.04,-181.62 1478.54,-191.62 1485.54,-191.62"/>
</g>
<!-- [root] provider[&quot;registry.terraform.io/hashicorp/azurerm&quot;] -->
<g id="node17" class="node">
<title>[root] provider[&quot;registry.terraform.io/hashicorp/azurerm&quot;]</title>
<polygon fill="none" stroke="black" points="1069.04,-108 781.44,-90 1069.04,-72 1356.63,-90 1069.04,-108"/>
<text text-anchor="middle" x="1069.04" y="-84.95" font-family="Times,serif" font-size="14.00">provider[&quot;registry.terraform.io/hashicorp/azurerm&quot;]</text>
</g>
<!-- [root] azurerm_resource_group.autoazvm&#45;dev&#45;rg (expand)&#45;&gt;[root] provider[&quot;registry.terraform.io/hashicorp/azurerm&quot;] -->
<g id="edge12" class="edge">
<title>[root] azurerm_resource_group.autoazvm&#45;dev&#45;rg (expand)&#45;&gt;[root] provider[&quot;registry.terraform.io/hashicorp/azurerm&quot;]</title>
<path fill="none" stroke="black" d="M1378.88,-143.52C1310,-131.84 1220.44,-116.66 1155.33,-105.63"/>
<polygon fill="black" stroke="black" points="1156.23,-102.23 1145.78,-104.01 1155.06,-109.13 1156.23,-102.23"/>
</g>
<!-- [root] var.location -->
<g id="node22" class="node">
<title>[root] var.location</title>
<polygon fill="none" stroke="black" points="1447.91,-108 1374.16,-108 1374.16,-72 1453.91,-72 1453.91,-102 1447.91,-108"/>
<polyline fill="none" stroke="black" points="1447.91,-108 1447.91,-102"/>
<polyline fill="none" stroke="black" points="1453.91,-102 1447.91,-102"/>
<text text-anchor="middle" x="1414.04" y="-84.95" font-family="Times,serif" font-size="14.00">var.location</text>
</g>
<!-- [root] azurerm_resource_group.autoazvm&#45;dev&#45;rg (expand)&#45;&gt;[root] var.location -->
<g id="edge13" class="edge">
<title>[root] azurerm_resource_group.autoazvm&#45;dev&#45;rg (expand)&#45;&gt;[root] var.location</title>
<path fill="none" stroke="black" d="M1465.23,-143.7C1457.16,-135.39 1447.33,-125.28 1438.46,-116.14"/>
<polygon fill="black" stroke="black" points="1441.18,-113.92 1431.71,-109.19 1436.16,-118.8 1441.18,-113.92"/>
</g>
<!-- [root] var.resource_group_name -->
<g id="node26" class="node">
<title>[root] var.resource_group_name</title>
<polygon fill="none" stroke="black" points="1622.54,-108 1471.54,-108 1471.54,-72 1628.54,-72 1628.54,-102 1622.54,-108"/>
<polyline fill="none" stroke="black" points="1622.54,-108 1622.54,-102"/>
<polyline fill="none" stroke="black" points="1628.54,-102 1622.54,-102"/>
<text text-anchor="middle" x="1550.04" y="-84.95" font-family="Times,serif" font-size="14.00">var.resource_group_name</text>
</g>
<!-- [root] azurerm_resource_group.autoazvm&#45;dev&#45;rg (expand)&#45;&gt;[root] var.resource_group_name -->
<g id="edge14" class="edge">
<title>[root] azurerm_resource_group.autoazvm&#45;dev&#45;rg (expand)&#45;&gt;[root] var.resource_group_name</title>
<path fill="none" stroke="black" d="M1498.84,-143.7C1506.91,-135.39 1516.74,-125.28 1525.61,-116.14"/>
<polygon fill="black" stroke="black" points="1527.91,-118.8 1532.37,-109.19 1522.89,-113.92 1527.91,-118.8"/>
</g>
<!-- [root] var.tags -->
<g id="node30" class="node">
<title>[root] var.tags</title>
<polygon fill="none" stroke="black" points="1699.04,-108 1647.04,-108 1647.04,-72 1705.04,-72 1705.04,-102 1699.04,-108"/>
<polyline fill="none" stroke="black" points="1699.04,-108 1699.04,-102"/>
<polyline fill="none" stroke="black" points="1705.04,-102 1699.04,-102"/>
<text text-anchor="middle" x="1676.04" y="-84.95" font-family="Times,serif" font-size="14.00">var.tags</text>
</g>
<!-- [root] azurerm_resource_group.autoazvm&#45;dev&#45;rg (expand)&#45;&gt;[root] var.tags -->
<g id="edge15" class="edge">
<title>[root] azurerm_resource_group.autoazvm&#45;dev&#45;rg (expand)&#45;&gt;[root] var.tags</title>
<path fill="none" stroke="black" d="M1537.36,-143.6C1564.81,-134.64 1598.61,-123.15 1636.04,-108.63"/>
<polygon fill="black" stroke="black" points="1637.25,-111.91 1645.28,-105 1634.7,-105.4 1637.25,-111.91"/>
</g>
<!-- [root] azurerm_subnet.autoazvm&#45;dev&#45;subnet (expand) -->
<g id="node10" class="node">
<title>[root] azurerm_subnet.autoazvm&#45;dev&#45;subnet (expand)</title>
<polygon fill="none" stroke="black" points="1728.91,-468 1505.16,-468 1505.16,-432 1728.91,-432 1728.91,-468"/>
<text text-anchor="middle" x="1617.04" y="-444.95" font-family="Times,serif" font-size="14.00">azurerm_subnet.autoazvm&#45;dev&#45;subnet</text>
</g>
<!-- [root] azurerm_subnet.autoazvm&#45;dev&#45;subnet&#45;&gt;[root] azurerm_subnet.autoazvm&#45;dev&#45;subnet (expand) -->
<g id="edge19" class="edge">
<title>[root] azurerm_subnet.autoazvm&#45;dev&#45;subnet&#45;&gt;[root] azurerm_subnet.autoazvm&#45;dev&#45;subnet (expand)</title>
<path fill="none" stroke="black" d="M1151.09,-505.16C1154.1,-504.76 1157.09,-504.38 1160.04,-504 1222.38,-496.01 1380.79,-477.81 1493.59,-464.98"/>
<polygon fill="black" stroke="black" points="1493.66,-468.49 1503.2,-463.88 1492.87,-461.54 1493.66,-468.49"/>
</g>
<!-- [root] azurerm_virtual_network.autoazvm&#45;dev&#45;vnet -->
<g id="node15" class="node">
<title>[root] azurerm_virtual_network.autoazvm&#45;dev&#45;vnet</title>
<polygon fill="none" stroke="black" points="2079.41,-396 1816.66,-396 1816.66,-360 2079.41,-360 2079.41,-396"/>
<text text-anchor="middle" x="1948.04" y="-372.95" font-family="Times,serif" font-size="14.00">azurerm_virtual_network.autoazvm&#45;dev&#45;vnet</text>
</g>
<!-- [root] azurerm_subnet.autoazvm&#45;dev&#45;subnet (expand)&#45;&gt;[root] azurerm_virtual_network.autoazvm&#45;dev&#45;vnet -->
<g id="edge17" class="edge">
<title>[root] azurerm_subnet.autoazvm&#45;dev&#45;subnet (expand)&#45;&gt;[root] azurerm_virtual_network.autoazvm&#45;dev&#45;vnet</title>
<path fill="none" stroke="black" d="M1699.71,-431.52C1746.69,-421.58 1805.68,-409.1 1854.38,-398.81"/>
<polygon fill="black" stroke="black" points="1855.02,-402.25 1864.08,-396.76 1853.57,-395.4 1855.02,-402.25"/>
</g>
<!-- [root] var.subnet_name -->
<g id="node28" class="node">
<title>[root] var.subnet_name</title>
<polygon fill="none" stroke="black" points="1665.16,-396 1562.91,-396 1562.91,-360 1671.16,-360 1671.16,-390 1665.16,-396"/>
<polyline fill="none" stroke="black" points="1665.16,-396 1665.16,-390"/>
<polyline fill="none" stroke="black" points="1671.16,-390 1665.16,-390"/>
<text text-anchor="middle" x="1617.04" y="-372.95" font-family="Times,serif" font-size="14.00">var.subnet_name</text>
</g>
<!-- [root] azurerm_subnet.autoazvm&#45;dev&#45;subnet (expand)&#45;&gt;[root] var.subnet_name -->
<g id="edge18" class="edge">
<title>[root] azurerm_subnet.autoazvm&#45;dev&#45;subnet (expand)&#45;&gt;[root] var.subnet_name</title>
<path fill="none" stroke="black" d="M1617.04,-431.7C1617.04,-424.41 1617.04,-415.73 1617.04,-407.54"/>
<polygon fill="black" stroke="black" points="1620.54,-407.62 1617.04,-397.62 1613.54,-407.62 1620.54,-407.62"/>
</g>
<!-- [root] azurerm_subnet_network_security_group_association.autoazvm&#45;dev&#45;subnet&#45;nsg&#45;association -->
<g id="node11" class="node">
<title>[root] azurerm_subnet_network_security_group_association.autoazvm&#45;dev&#45;subnet&#45;nsg&#45;association</title>
<polygon fill="none" stroke="black" points="957.54,-828 440.54,-828 440.54,-792 957.54,-792 957.54,-828"/>
<text text-anchor="middle" x="699.04" y="-804.95" font-family="Times,serif" font-size="14.00">azurerm_subnet_network_security_group_association.autoazvm&#45;dev&#45;subnet&#45;nsg&#45;association</text>
</g>
<!-- [root] azurerm_subnet_network_security_group_association.autoazvm&#45;dev&#45;subnet&#45;nsg&#45;association (expand) -->
<g id="node12" class="node">
<title>[root] azurerm_subnet_network_security_group_association.autoazvm&#45;dev&#45;subnet&#45;nsg&#45;association (expand)</title>
<polygon fill="none" stroke="black" points="756.54,-756 239.54,-756 239.54,-720 756.54,-720 756.54,-756"/>
<text text-anchor="middle" x="498.04" y="-732.95" font-family="Times,serif" font-size="14.00">azurerm_subnet_network_security_group_association.autoazvm&#45;dev&#45;subnet&#45;nsg&#45;association</text>
</g>
<!-- [root] azurerm_subnet_network_security_group_association.autoazvm&#45;dev&#45;subnet&#45;nsg&#45;association&#45;&gt;[root] azurerm_subnet_network_security_group_association.autoazvm&#45;dev&#45;subnet&#45;nsg&#45;association (expand) -->
<g id="edge22" class="edge">
<title>[root] azurerm_subnet_network_security_group_association.autoazvm&#45;dev&#45;subnet&#45;nsg&#45;association&#45;&gt;[root] azurerm_subnet_network_security_group_association.autoazvm&#45;dev&#45;subnet&#45;nsg&#45;association (expand)</title>
<path fill="none" stroke="black" d="M648.83,-791.52C621.51,-782 587.5,-770.16 558.7,-760.13"/>
<polygon fill="black" stroke="black" points="559.97,-756.86 549.38,-756.88 557.67,-763.47 559.97,-756.86"/>
</g>
<!-- [root] azurerm_subnet_network_security_group_association.autoazvm&#45;dev&#45;subnet&#45;nsg&#45;association (expand)&#45;&gt;[root] azurerm_network_security_group.autoazvm&#45;dev&#45;nsg -->
<g id="edge20" class="edge">
<title>[root] azurerm_subnet_network_security_group_association.autoazvm&#45;dev&#45;subnet&#45;nsg&#45;association (expand)&#45;&gt;[root] azurerm_network_security_group.autoazvm&#45;dev&#45;nsg</title>
<path fill="none" stroke="black" d="M449.08,-719.52C422.44,-710 389.28,-698.16 361.19,-688.13"/>
<polygon fill="black" stroke="black" points="362.72,-684.96 352.13,-684.89 360.37,-691.55 362.72,-684.96"/>
</g>
<!-- [root] azurerm_subnet_network_security_group_association.autoazvm&#45;dev&#45;subnet&#45;nsg&#45;association (expand)&#45;&gt;[root] azurerm_subnet.autoazvm&#45;dev&#45;subnet -->
<g id="edge21" class="edge">
<title>[root] azurerm_subnet_network_security_group_association.autoazvm&#45;dev&#45;subnet&#45;nsg&#45;association (expand)&#45;&gt;[root] azurerm_subnet.autoazvm&#45;dev&#45;subnet</title>
<path fill="none" stroke="black" d="M493.01,-719.79C488.4,-700.12 484.54,-668.06 501.04,-648 552.84,-584.99 773.43,-550.52 915.56,-534.49"/>
<polygon fill="black" stroke="black" points="915.88,-537.97 925.43,-533.39 915.1,-531.02 915.88,-537.97"/>
</g>
<!-- [root] azurerm_virtual_machine.autoazvm&#45;dev&#45;vm -->
<g id="node13" class="node">
<title>[root] azurerm_virtual_machine.autoazvm&#45;dev&#45;vm</title>
<polygon fill="none" stroke="black" points="1234.91,-828 975.16,-828 975.16,-792 1234.91,-792 1234.91,-828"/>
<text text-anchor="middle" x="1105.04" y="-804.95" font-family="Times,serif" font-size="14.00">azurerm_virtual_machine.autoazvm&#45;dev&#45;vm</text>
</g>
<!-- [root] azurerm_virtual_machine.autoazvm&#45;dev&#45;vm (expand) -->
<g id="node14" class="node">
<title>[root] azurerm_virtual_machine.autoazvm&#45;dev&#45;vm (expand)</title>
<polygon fill="none" stroke="black" points="1178.91,-756 919.16,-756 919.16,-720 1178.91,-720 1178.91,-756"/>
<text text-anchor="middle" x="1049.04" y="-732.95" font-family="Times,serif" font-size="14.00">azurerm_virtual_machine.autoazvm&#45;dev&#45;vm</text>
</g>
<!-- [root] azurerm_virtual_machine.autoazvm&#45;dev&#45;vm&#45;&gt;[root] azurerm_virtual_machine.autoazvm&#45;dev&#45;vm (expand) -->
<g id="edge30" class="edge">
<title>[root] azurerm_virtual_machine.autoazvm&#45;dev&#45;vm&#45;&gt;[root] azurerm_virtual_machine.autoazvm&#45;dev&#45;vm (expand)</title>
<path fill="none" stroke="black" d="M1091.19,-791.7C1084.75,-783.64 1076.95,-773.89 1069.82,-764.98"/>
<polygon fill="black" stroke="black" points="1072.64,-762.91 1063.66,-757.29 1067.18,-767.28 1072.64,-762.91"/>
</g>
<!-- [root] azurerm_virtual_machine.autoazvm&#45;dev&#45;vm (expand)&#45;&gt;[root] azurerm_network_interface.autoazvm&#45;dev&#45;ni -->
<g id="edge23" class="edge">
<title>[root] azurerm_virtual_machine.autoazvm&#45;dev&#45;vm (expand)&#45;&gt;[root] azurerm_network_interface.autoazvm&#45;dev&#45;ni</title>
<path fill="none" stroke="black" d="M1170.67,-719.52C1241.55,-709.33 1330.99,-696.47 1403.64,-686.03"/>
<polygon fill="black" stroke="black" points="1403.79,-689.54 1413.19,-684.66 1402.79,-682.62 1403.79,-689.54"/>
</g>
<!-- [root] var.admin_password -->
<g id="node18" class="node">
<title>[root] var.admin_password</title>
<polygon fill="none" stroke="black" points="632.29,-684 509.79,-684 509.79,-648 638.29,-648 638.29,-678 632.29,-684"/>
<polyline fill="none" stroke="black" points="632.29,-684 632.29,-678"/>
<polyline fill="none" stroke="black" points="638.29,-678 632.29,-678"/>
<text text-anchor="middle" x="574.04" y="-660.95" font-family="Times,serif" font-size="14.00">var.admin_password</text>
</g>
<!-- [root] azurerm_virtual_machine.autoazvm&#45;dev&#45;vm (expand)&#45;&gt;[root] var.admin_password -->
<g id="edge24" class="edge">
<title>[root] azurerm_virtual_machine.autoazvm&#45;dev&#45;vm (expand)&#45;&gt;[root] var.admin_password</title>
<path fill="none" stroke="black" d="M919.09,-723.13C843.13,-714.24 745.21,-701.46 649.77,-684.41"/>
<polygon fill="black" stroke="black" points="650.4,-680.96 639.94,-682.63 649.16,-687.85 650.4,-680.96"/>
</g>
<!-- [root] var.admin_username -->
<g id="node19" class="node">
<title>[root] var.admin_username</title>
<polygon fill="none" stroke="black" points="780.04,-684 656.04,-684 656.04,-648 786.04,-648 786.04,-678 780.04,-684"/>
<polyline fill="none" stroke="black" points="780.04,-684 780.04,-678"/>
<polyline fill="none" stroke="black" points="786.04,-678 780.04,-678"/>
<text text-anchor="middle" x="721.04" y="-660.95" font-family="Times,serif" font-size="14.00">var.admin_username</text>
</g>
<!-- [root] azurerm_virtual_machine.autoazvm&#45;dev&#45;vm (expand)&#45;&gt;[root] var.admin_username -->
<g id="edge25" class="edge">
<title>[root] azurerm_virtual_machine.autoazvm&#45;dev&#45;vm (expand)&#45;&gt;[root] var.admin_username</title>
<path fill="none" stroke="black" d="M963.12,-719.52C916.66,-709.96 858.01,-697.73 797.34,-684.48"/>
<polygon fill="black" stroke="black" points="798.39,-681.13 787.87,-682.41 796.89,-687.97 798.39,-681.13"/>
</g>
<!-- [root] var.computer_name -->
<g id="node20" class="node">
<title>[root] var.computer_name</title>
<polygon fill="none" stroke="black" points="922.41,-684 803.66,-684 803.66,-648 928.41,-648 928.41,-678 922.41,-684"/>
<polyline fill="none" stroke="black" points="922.41,-684 922.41,-678"/>
<polyline fill="none" stroke="black" points="928.41,-678 922.41,-678"/>
<text text-anchor="middle" x="866.04" y="-660.95" font-family="Times,serif" font-size="14.00">var.computer_name</text>
</g>
<!-- [root] azurerm_virtual_machine.autoazvm&#45;dev&#45;vm (expand)&#45;&gt;[root] var.computer_name -->
<g id="edge26" class="edge">
<title>[root] azurerm_virtual_machine.autoazvm&#45;dev&#45;vm (expand)&#45;&gt;[root] var.computer_name</title>
<path fill="none" stroke="black" d="M1003.33,-719.52C978.67,-710.08 948.04,-698.37 921.97,-688.39"/>
<polygon fill="black" stroke="black" points="923.48,-685.23 912.89,-684.92 920.98,-691.76 923.48,-685.23"/>
</g>
<!-- [root] var.storage_os_disk -->
<g id="node27" class="node">
<title>[root] var.storage_os_disk</title>
<polygon fill="none" stroke="black" points="1063.66,-684 946.41,-684 946.41,-648 1069.66,-648 1069.66,-678 1063.66,-684"/>
<polyline fill="none" stroke="black" points="1063.66,-684 1063.66,-678"/>
<polyline fill="none" stroke="black" points="1069.66,-678 1063.66,-678"/>
<text text-anchor="middle" x="1008.04" y="-660.95" font-family="Times,serif" font-size="14.00">var.storage_os_disk</text>
</g>
<!-- [root] azurerm_virtual_machine.autoazvm&#45;dev&#45;vm (expand)&#45;&gt;[root] var.storage_os_disk -->
<g id="edge27" class="edge">
<title>[root] azurerm_virtual_machine.autoazvm&#45;dev&#45;vm (expand)&#45;&gt;[root] var.storage_os_disk</title>
<path fill="none" stroke="black" d="M1038.9,-719.7C1034.33,-711.9 1028.83,-702.51 1023.75,-693.83"/>
<polygon fill="black" stroke="black" points="1026.89,-692.27 1018.82,-685.41 1020.85,-695.81 1026.89,-692.27"/>
</g>
<!-- [root] var.virtual_machine_name -->
<g id="node31" class="node">
<title>[root] var.virtual_machine_name</title>
<polygon fill="none" stroke="black" points="1242.79,-684 1087.29,-684 1087.29,-648 1248.79,-648 1248.79,-678 1242.79,-684"/>
<polyline fill="none" stroke="black" points="1242.79,-684 1242.79,-678"/>
<polyline fill="none" stroke="black" points="1248.79,-678 1242.79,-678"/>
<text text-anchor="middle" x="1168.04" y="-660.95" font-family="Times,serif" font-size="14.00">var.virtual_machine_name</text>
</g>
<!-- [root] azurerm_virtual_machine.autoazvm&#45;dev&#45;vm (expand)&#45;&gt;[root] var.virtual_machine_name -->
<g id="edge28" class="edge">
<title>[root] azurerm_virtual_machine.autoazvm&#45;dev&#45;vm (expand)&#45;&gt;[root] var.virtual_machine_name</title>
<path fill="none" stroke="black" d="M1078.76,-719.52C1093.92,-710.6 1112.56,-699.63 1128.88,-690.03"/>
<polygon fill="black" stroke="black" points="1130.54,-693.11 1137.39,-685.03 1126.99,-687.08 1130.54,-693.11"/>
</g>
<!-- [root] var.vm_size -->
<g id="node33" class="node">
<title>[root] var.vm_size</title>
<polygon fill="none" stroke="black" points="1343.04,-684 1267.04,-684 1267.04,-648 1349.04,-648 1349.04,-678 1343.04,-684"/>
<polyline fill="none" stroke="black" points="1343.04,-684 1343.04,-678"/>
<polyline fill="none" stroke="black" points="1349.04,-678 1343.04,-678"/>
<text text-anchor="middle" x="1308.04" y="-660.95" font-family="Times,serif" font-size="14.00">var.vm_size</text>
</g>
<!-- [root] azurerm_virtual_machine.autoazvm&#45;dev&#45;vm (expand)&#45;&gt;[root] var.vm_size -->
<g id="edge29" class="edge">
<title>[root] azurerm_virtual_machine.autoazvm&#45;dev&#45;vm (expand)&#45;&gt;[root] var.vm_size</title>
<path fill="none" stroke="black" d="M1123.91,-719.54C1161.18,-710.49 1207.1,-698.81 1255.87,-684.54"/>
<polygon fill="black" stroke="black" points="1256.59,-687.97 1265.19,-681.78 1254.61,-681.26 1256.59,-687.97"/>
</g>
<!-- [root] azurerm_virtual_network.autoazvm&#45;dev&#45;vnet (expand) -->
<g id="node16" class="node">
<title>[root] azurerm_virtual_network.autoazvm&#45;dev&#45;vnet (expand)</title>
<polygon fill="none" stroke="black" points="2061.41,-324 1798.66,-324 1798.66,-288 2061.41,-288 2061.41,-324"/>
<text text-anchor="middle" x="1930.04" y="-300.95" font-family="Times,serif" font-size="14.00">azurerm_virtual_network.autoazvm&#45;dev&#45;vnet</text>
</g>
<!-- [root] azurerm_virtual_network.autoazvm&#45;dev&#45;vnet&#45;&gt;[root] azurerm_virtual_network.autoazvm&#45;dev&#45;vnet (expand) -->
<g id="edge33" class="edge">
<title>[root] azurerm_virtual_network.autoazvm&#45;dev&#45;vnet&#45;&gt;[root] azurerm_virtual_network.autoazvm&#45;dev&#45;vnet (expand)</title>
<path fill="none" stroke="black" d="M1943.59,-359.7C1941.69,-352.32 1939.43,-343.52 1937.3,-335.25"/>
<polygon fill="black" stroke="black" points="1940.69,-334.38 1934.81,-325.57 1933.91,-336.13 1940.69,-334.38"/>
</g>
<!-- [root] azurerm_virtual_network.autoazvm&#45;dev&#45;vnet (expand)&#45;&gt;[root] azurerm_resource_group.autoazvm&#45;dev&#45;rg -->
<g id="edge31" class="edge">
<title>[root] azurerm_virtual_network.autoazvm&#45;dev&#45;vnet (expand)&#45;&gt;[root] azurerm_resource_group.autoazvm&#45;dev&#45;rg</title>
<path fill="none" stroke="black" d="M1818.14,-287.52C1753.21,-277.37 1671.34,-264.58 1604.66,-254.16"/>
<polygon fill="black" stroke="black" points="1605.58,-250.76 1595.16,-252.68 1604.5,-257.68 1605.58,-250.76"/>
</g>
<!-- [root] var.virtual_network_name -->
<g id="node32" class="node">
<title>[root] var.virtual_network_name</title>
<polygon fill="none" stroke="black" points="2003.66,-252 1850.41,-252 1850.41,-216 2009.66,-216 2009.66,-246 2003.66,-252"/>
<polyline fill="none" stroke="black" points="2003.66,-252 2003.66,-246"/>
<polyline fill="none" stroke="black" points="2009.66,-246 2003.66,-246"/>
<text text-anchor="middle" x="1930.04" y="-228.95" font-family="Times,serif" font-size="14.00">var.virtual_network_name</text>
</g>
<!-- [root] azurerm_virtual_network.autoazvm&#45;dev&#45;vnet (expand)&#45;&gt;[root] var.virtual_network_name -->
<g id="edge32" class="edge">
<title>[root] azurerm_virtual_network.autoazvm&#45;dev&#45;vnet (expand)&#45;&gt;[root] var.virtual_network_name</title>
<path fill="none" stroke="black" d="M1930.04,-287.7C1930.04,-280.41 1930.04,-271.73 1930.04,-263.54"/>
<polygon fill="black" stroke="black" points="1933.54,-263.62 1930.04,-253.62 1926.54,-263.62 1933.54,-263.62"/>
</g>
<!-- [root] var.subscription_id -->
<g id="node29" class="node">
<title>[root] var.subscription_id</title>
<polygon fill="none" stroke="black" points="1122.79,-36 1009.29,-36 1009.29,0 1128.79,0 1128.79,-30 1122.79,-36"/>
<polyline fill="none" stroke="black" points="1122.79,-36 1122.79,-30"/>
<polyline fill="none" stroke="black" points="1128.79,-30 1122.79,-30"/>
<text text-anchor="middle" x="1069.04" y="-12.95" font-family="Times,serif" font-size="14.00">var.subscription_id</text>
</g>
<!-- [root] provider[&quot;registry.terraform.io/hashicorp/azurerm&quot;]&#45;&gt;[root] var.subscription_id -->
<g id="edge42" class="edge">
<title>[root] provider[&quot;registry.terraform.io/hashicorp/azurerm&quot;]&#45;&gt;[root] var.subscription_id</title>
<path fill="none" stroke="black" d="M1069.04,-71.7C1069.04,-64.41 1069.04,-55.73 1069.04,-47.54"/>
<polygon fill="black" stroke="black" points="1072.54,-47.62 1069.04,-37.62 1065.54,-47.62 1072.54,-47.62"/>
</g>
<!-- [root] output.network_interface_ids (expand) -->
<g id="node34" class="node">
<title>[root] output.network_interface_ids (expand)</title>
<ellipse fill="none" stroke="black" cx="1583.04" cy="-810" rx="178.28" ry="18"/>
<text text-anchor="middle" x="1583.04" y="-804.95" font-family="Times,serif" font-size="14.00">[root] output.network_interface_ids (expand)</text>
</g>
<!-- [root] output.network_interface_ids (expand)&#45;&gt;[root] azurerm_network_interface.autoazvm&#45;dev&#45;ni -->
<g id="edge34" class="edge">
<title>[root] output.network_interface_ids (expand)&#45;&gt;[root] azurerm_network_interface.autoazvm&#45;dev&#45;ni</title>
<path fill="none" stroke="black" d="M1577.27,-791.59C1569.3,-767.5 1554.82,-723.75 1545.31,-695.03"/>
<polygon fill="black" stroke="black" points="1548.64,-693.94 1542.17,-685.55 1541.99,-696.14 1548.64,-693.94"/>
</g>
<!-- [root] output.network_security_group_name (expand) -->
<g id="node35" class="node">
<title>[root] output.network_security_group_name (expand)</title>
<ellipse fill="none" stroke="black" cx="211.04" cy="-810" rx="211.04" ry="18"/>
<text text-anchor="middle" x="211.04" y="-804.95" font-family="Times,serif" font-size="14.00">[root] output.network_security_group_name (expand)</text>
</g>
<!-- [root] output.network_security_group_name (expand)&#45;&gt;[root] azurerm_network_security_group.autoazvm&#45;dev&#45;nsg -->
<g id="edge35" class="edge">
<title>[root] output.network_security_group_name (expand)&#45;&gt;[root] azurerm_network_security_group.autoazvm&#45;dev&#45;nsg</title>
<path fill="none" stroke="black" d="M211.43,-791.57C212.62,-772.56 216.82,-741.92 231.04,-720 238.35,-708.72 248.95,-698.97 259.73,-691.01"/>
<polygon fill="black" stroke="black" points="261.69,-693.91 267.93,-685.35 257.71,-688.15 261.69,-693.91"/>
</g>
<!-- [root] output.resource_group_name (expand) -->
<g id="node36" class="node">
<title>[root] output.resource_group_name (expand)</title>
<ellipse fill="none" stroke="black" cx="1585.04" cy="-306" rx="178.28" ry="18"/>
<text text-anchor="middle" x="1585.04" y="-300.95" font-family="Times,serif" font-size="14.00">[root] output.resource_group_name (expand)</text>
</g>
<!-- [root] output.resource_group_name (expand)&#45;&gt;[root] azurerm_resource_group.autoazvm&#45;dev&#45;rg -->
<g id="edge36" class="edge">
<title>[root] output.resource_group_name (expand)&#45;&gt;[root] azurerm_resource_group.autoazvm&#45;dev&#45;rg</title>
<path fill="none" stroke="black" d="M1559.57,-287.7C1546.7,-278.95 1530.88,-268.19 1516.89,-258.69"/>
<polygon fill="black" stroke="black" points="1519.05,-255.92 1508.81,-253.2 1515.12,-261.71 1519.05,-255.92"/>
</g>
<!-- [root] output.subnet_id (expand) -->
<g id="node37" class="node">
<title>[root] output.subnet_id (expand)</title>
<ellipse fill="none" stroke="black" cx="1124.04" cy="-594" rx="131.71" ry="18"/>
<text text-anchor="middle" x="1124.04" y="-588.95" font-family="Times,serif" font-size="14.00">[root] output.subnet_id (expand)</text>
</g>
<!-- [root] output.subnet_id (expand)&#45;&gt;[root] azurerm_subnet.autoazvm&#45;dev&#45;subnet -->
<g id="edge37" class="edge">
<title>[root] output.subnet_id (expand)&#45;&gt;[root] azurerm_subnet.autoazvm&#45;dev&#45;subnet</title>
<path fill="none" stroke="black" d="M1103.46,-576.05C1093.07,-567.5 1080.27,-556.96 1068.83,-547.54"/>
<polygon fill="black" stroke="black" points="1071.13,-544.89 1061.18,-541.24 1066.68,-550.3 1071.13,-544.89"/>
</g>
<!-- [root] output.virtual_machine_name (expand) -->
<g id="node38" class="node">
<title>[root] output.virtual_machine_name (expand)</title>
<ellipse fill="none" stroke="black" cx="1168.04" cy="-882" rx="181.35" ry="18"/>
<text text-anchor="middle" x="1168.04" y="-876.95" font-family="Times,serif" font-size="14.00">[root] output.virtual_machine_name (expand)</text>
</g>
<!-- [root] output.virtual_machine_name (expand)&#45;&gt;[root] azurerm_virtual_machine.autoazvm&#45;dev&#45;vm -->
<g id="edge38" class="edge">
<title>[root] output.virtual_machine_name (expand)&#45;&gt;[root] azurerm_virtual_machine.autoazvm&#45;dev&#45;vm</title>
<path fill="none" stroke="black" d="M1152.46,-863.7C1145.06,-855.47 1136.07,-845.48 1127.91,-836.42"/>
<polygon fill="black" stroke="black" points="1130.73,-834.32 1121.44,-829.23 1125.53,-839 1130.73,-834.32"/>
</g>
<!-- [root] output.virtual_network_name (expand) -->
<g id="node39" class="node">
<title>[root] output.virtual_network_name (expand)</title>
<ellipse fill="none" stroke="black" cx="1997.04" cy="-738" rx="179.82" ry="18"/>
<text text-anchor="middle" x="1997.04" y="-732.95" font-family="Times,serif" font-size="14.00">[root] output.virtual_network_name (expand)</text>
</g>
<!-- [root] output.virtual_network_name (expand)&#45;&gt;[root] azurerm_virtual_network.autoazvm&#45;dev&#45;vnet -->
<g id="edge39" class="edge">
<title>[root] output.virtual_network_name (expand)&#45;&gt;[root] azurerm_virtual_network.autoazvm&#45;dev&#45;vnet</title>
<path fill="none" stroke="black" d="M1991.98,-719.68C1984.67,-693.11 1972.04,-640.56 1972.04,-595 1972.04,-595 1972.04,-595 1972.04,-521 1972.04,-481.18 1962.75,-435.95 1955.73,-407.45"/>
<polygon fill="black" stroke="black" points="1959.13,-406.62 1953.27,-397.8 1952.34,-408.35 1959.13,-406.62"/>
</g>
<!-- [root] provider[&quot;registry.terraform.io/hashicorp/azurerm&quot;] (close) -->
<g id="node40" class="node">
<title>[root] provider[&quot;registry.terraform.io/hashicorp/azurerm&quot;] (close)</title>
<ellipse fill="none" stroke="black" cx="714.04" cy="-882" rx="254.54" ry="18"/>
<text text-anchor="middle" x="714.04" y="-876.95" font-family="Times,serif" font-size="14.00">[root] provider[&quot;registry.terraform.io/hashicorp/azurerm&quot;] (close)</text>
</g>
<!-- [root] provider[&quot;registry.terraform.io/hashicorp/azurerm&quot;] (close)&#45;&gt;[root] azurerm_subnet_network_security_group_association.autoazvm&#45;dev&#45;subnet&#45;nsg&#45;association -->
<g id="edge40" class="edge">
<title>[root] provider[&quot;registry.terraform.io/hashicorp/azurerm&quot;] (close)&#45;&gt;[root] azurerm_subnet_network_security_group_association.autoazvm&#45;dev&#45;subnet&#45;nsg&#45;association</title>
<path fill="none" stroke="black" d="M710.33,-863.7C708.75,-856.32 706.86,-847.52 705.09,-839.25"/>
<polygon fill="black" stroke="black" points="708.54,-838.63 703.02,-829.58 701.69,-840.1 708.54,-838.63"/>
</g>
<!-- [root] provider[&quot;registry.terraform.io/hashicorp/azurerm&quot;] (close)&#45;&gt;[root] azurerm_virtual_machine.autoazvm&#45;dev&#45;vm -->
<g id="edge41" class="edge">
<title>[root] provider[&quot;registry.terraform.io/hashicorp/azurerm&quot;] (close)&#45;&gt;[root] azurerm_virtual_machine.autoazvm&#45;dev&#45;vm</title>
<path fill="none" stroke="black" d="M804.72,-864.76C861.85,-854.54 935.93,-841.27 996.23,-830.48"/>
<polygon fill="black" stroke="black" points="996.6,-833.97 1005.83,-828.76 995.37,-827.08 996.6,-833.97"/>
</g>
<!-- [root] root -->
<g id="node41" class="node">
<title>[root] root</title>
<ellipse fill="none" stroke="black" cx="1377.04" cy="-954" rx="49.3" ry="18"/>
<text text-anchor="middle" x="1377.04" y="-948.95" font-family="Times,serif" font-size="14.00">[root] root</text>
</g>
<!-- [root] root&#45;&gt;[root] output.network_interface_ids (expand) -->
<g id="edge43" class="edge">
<title>[root] root&#45;&gt;[root] output.network_interface_ids (expand)</title>
<path fill="none" stroke="black" d="M1399.47,-937.53C1435.46,-912.73 1506.34,-863.87 1548.71,-834.66"/>
<polygon fill="black" stroke="black" points="1550.58,-837.63 1556.82,-829.07 1546.6,-831.86 1550.58,-837.63"/>
</g>
<!-- [root] root&#45;&gt;[root] output.network_security_group_name (expand) -->
<g id="edge44" class="edge">
<title>[root] root&#45;&gt;[root] output.network_security_group_name (expand)</title>
<path fill="none" stroke="black" d="M1327.54,-952.12C1160.71,-948.84 620.03,-935.66 450.04,-900 380.54,-885.42 304.32,-854.18 257.08,-832.88"/>
<polygon fill="black" stroke="black" points="258.8,-829.81 248.25,-828.85 255.9,-836.18 258.8,-829.81"/>
</g>
<!-- [root] root&#45;&gt;[root] output.resource_group_name (expand) -->
<g id="edge45" class="edge">
<title>[root] root&#45;&gt;[root] output.resource_group_name (expand)</title>
<path fill="none" stroke="black" d="M1423.1,-947.08C1530.61,-931.98 1789.04,-887.7 1789.04,-811 1789.04,-811 1789.04,-811 1789.04,-449 1789.04,-384.41 1719.29,-346.8 1661.36,-326.71"/>
<polygon fill="black" stroke="black" points="1662.73,-323.48 1652.14,-323.64 1660.52,-330.12 1662.73,-323.48"/>
</g>
<!-- [root] root&#45;&gt;[root] output.subnet_id (expand) -->
<g id="edge46" class="edge">
<title>[root] root&#45;&gt;[root] output.subnet_id (expand)</title>
<path fill="none" stroke="black" d="M1377.04,-935.51C1377.04,-908.71 1377.04,-855.87 1377.04,-811 1377.04,-811 1377.04,-811 1377.04,-737 1377.04,-696.55 1386.46,-676.78 1358.04,-648 1339.97,-629.7 1284.9,-616.73 1232.72,-608.2"/>
<polygon fill="black" stroke="black" points="1233.56,-604.79 1223.14,-606.68 1232.47,-611.7 1233.56,-604.79"/>
</g>
<!-- [root] root&#45;&gt;[root] output.virtual_machine_name (expand) -->
<g id="edge47" class="edge">
<title>[root] root&#45;&gt;[root] output.virtual_machine_name (expand)</title>
<path fill="none" stroke="black" d="M1341.58,-941.13C1310.63,-930.76 1265.05,-915.49 1228.37,-903.21"/>
<polygon fill="black" stroke="black" points="1229.82,-900 1219.22,-900.14 1227.6,-906.64 1229.82,-900"/>
</g>
<!-- [root] root&#45;&gt;[root] output.virtual_network_name (expand) -->
<g id="edge48" class="edge">
<title>[root] root&#45;&gt;[root] output.virtual_network_name (expand)</title>
<path fill="none" stroke="black" d="M1425.59,-950.39C1522.45,-944.62 1736.09,-928.96 1803.04,-900 1875.56,-868.63 1942.27,-801.44 1975.3,-764.55"/>
<polygon fill="black" stroke="black" points="1977.59,-767.25 1981.58,-757.43 1972.34,-762.62 1977.59,-767.25"/>
</g>
<!-- [root] root&#45;&gt;[root] provider[&quot;registry.terraform.io/hashicorp/azurerm&quot;] (close) -->
<g id="edge49" class="edge">
<title>[root] root&#45;&gt;[root] provider[&quot;registry.terraform.io/hashicorp/azurerm&quot;] (close)</title>
<path fill="none" stroke="black" d="M1330.15,-948.05C1234.36,-937.94 1012.64,-914.53 863.01,-898.73"/>
<polygon fill="black" stroke="black" points="863.73,-895.29 853.42,-897.72 863,-902.25 863.73,-895.29"/>
</g>
</g>
</svg>
